<svg xmlns="http://www.w3.org/2000/svg"  shape-rendering="crispEdges" xmlns:xlink="http://www.w3.org/1999/xlink" width="12.2745in" height="8.67825in" viewBox="-10 -10 1169 826.5"><rect x="-10" y="-10" width="1169" height="826.5" fill="#FFFFFF" />  <g    xmlns="http://www.w3.org/2000/svg">           <text   x="572.640625" y="-3" font-family="Arial" font-size="7pt"  fill="#000080"  display="none"  text-anchor="start"    >NO </text>           <text   x="572.6484375" y="-13.703125" font-family="Arial" font-size="7pt" fill="#000080"  display="none"  text-anchor="start"    >. </text>      <path d="M 206 10 L 206 0 M 206 796 L 206 806 M 402 10 L 402 0 M 402 796 L 402 806 M 598 10 L 598 0 M 598 796 L 598 806 M 794 10 L 794 0 M 794 796 L 794 806 M 990 10 L 990 0 M 990 796 L 990 806 M 10 206 L 0 206 M 1139 206 L 1149 206 M 10 402 L 0 402 M 1139 402 L 1149 402 M 10 598 L 0 598 M 1139 598 L 1149 598 M 10 794 L 0 794 M 1139 794 L 1149 794"   stroke="#880000"  stroke-width="1"   fill="none"  />           <text x="1.5" y="108" font-family="Verdana,msyh" font-size="7pt"  fill="#880000"   font-style="normal"  text-anchor="start" type="comment" font-weight="normal"   >A </text>           <text x="1140.5" y="108" font-family="Verdana,msyh" font-size="7pt"  fill="#880000"   font-style="normal"  text-anchor="start" type="comment" font-weight="normal"   >A </text>           <text x="1.5" y="304" font-family="Verdana,msyh" font-size="7pt"  fill="#880000"   font-style="normal"  text-anchor="start" type="comment" font-weight="normal"   >B </text>           <text x="1140.5" y="304" font-family="Verdana,msyh" font-size="7pt"  fill="#880000"   font-style="normal"  text-anchor="start" type="comment" font-weight="normal"   >B </text>           <text x="1.5" y="500" font-family="Verdana,msyh" font-size="7pt"  fill="#880000"   font-style="normal"  text-anchor="start" type="comment" font-weight="normal"   >C </text>           <text x="1140.5" y="500" font-family="Verdana,msyh" font-size="7pt"  fill="#880000"   font-style="normal"  text-anchor="start" type="comment" font-weight="normal"   >C </text>           <text x="1.5" y="696" font-family="Verdana,msyh" font-size="7pt"  fill="#880000"   font-style="normal"  text-anchor="start" type="comment" font-weight="normal"   >D </text>           <text x="1140.5" y="696" font-family="Verdana,msyh" font-size="7pt"  fill="#880000"   font-style="normal"  text-anchor="start" type="comment" font-weight="normal"   >D </text>           <text x="108" y="8.5" font-family="Verdana,msyh" font-size="7pt"  fill="#880000"   font-style="normal"  text-anchor="start" type="comment" font-weight="normal"   >1 </text>           <text x="108" y="804.5" font-family="Verdana,msyh" font-size="7pt"  fill="#880000"   font-style="normal"  text-anchor="start" type="comment" font-weight="normal"   >1 </text>           <text x="304" y="8.5" font-family="Verdana,msyh" font-size="7pt"  fill="#880000"   font-style="normal"  text-anchor="start" type="comment" font-weight="normal"   >2 </text>           <text x="304" y="804.5" font-family="Verdana,msyh" font-size="7pt"  fill="#880000"   font-style="normal"  text-anchor="start" type="comment" font-weight="normal"   >2 </text>           <text x="500" y="8.5" font-family="Verdana,msyh" font-size="7pt"  fill="#880000"   font-style="normal"  text-anchor="start" type="comment" font-weight="normal"   >3 </text>           <text x="500" y="804.5" font-family="Verdana,msyh" font-size="7pt"  fill="#880000"   font-style="normal"  text-anchor="start" type="comment" font-weight="normal"   >3 </text>           <text x="696" y="8.5" font-family="Verdana,msyh" font-size="7pt"  fill="#880000"   font-style="normal"  text-anchor="start" type="comment" font-weight="normal"   >4 </text>           <text x="696" y="804.5" font-family="Verdana,msyh" font-size="7pt"  fill="#880000"   font-style="normal"  text-anchor="start" type="comment" font-weight="normal"   >4 </text>           <text x="892" y="8.5" font-family="Verdana,msyh" font-size="7pt"  fill="#880000"   font-style="normal"  text-anchor="start" type="comment" font-weight="normal"   >5 </text>           <text x="892" y="804.5" font-family="Verdana,msyh" font-size="7pt"  fill="#880000"   font-style="normal"  text-anchor="start" type="comment" font-weight="normal"   >5 </text>      <rect xmlns="http://www.w3.org/2000/svg" x="10" y="10"     width="1129" height="786"    stroke="#880000"  stroke-width="1"  fill="none"       />      <rect xmlns="http://www.w3.org/2000/svg" x="0" y="0"     width="1149" height="806"    stroke="#880000"  stroke-width="1"  fill="none"       />      <rect xmlns="http://www.w3.org/2000/svg" x="739" y="716"     width="400" height="80"    stroke="#880000"  stroke-width="1"  fill="none"       />      <polyline points="739 756 1139 756" stroke="#880000" stroke-width="1"    fill="none"  stroke-linecap="round"    />      <polyline points="739 776 1139 776" stroke="#880000" stroke-width="1"    fill="none"  stroke-linecap="round"    />      <polyline points="1059 716 1059 756" stroke="#880000" stroke-width="1"    fill="none"  stroke-linecap="round"    />      <polyline points="1019 756 1019 776" stroke="#880000" stroke-width="1"    fill="none"  stroke-linecap="round"    />      <polyline points="934 776 934 796" stroke="#880000" stroke-width="1"    fill="none"  stroke-linecap="round"    />           <text x="744" y="728" font-family="Verdana,msyh" font-size="8pt"  fill="#880000"   font-style="normal"  text-anchor="start" type="comment" font-weight="normal"   >TITLE: </text>           <text x="749" y="746" font-family="Verdana,msyh" font-size="10pt"  fill="#0000FF"   font-style="normal"  text-anchor="start" type="comment" font-weight="normal"   >New Schematic </text>           <text x="1065" y="742" font-family="Verdana,msyh" font-size="8pt"  fill="#880000"   font-style="normal"  text-anchor="start" type="comment" font-weight="normal"   >REV: </text>           <text x="1096" y="743" font-family="Verdana,msyh" font-size="9pt"  fill="#0000FF"   font-style="normal"  text-anchor="start" type="comment" font-weight="normal"   >1.0 </text>           <text x="744" y="771" font-family="Verdana,msyh" font-size="8pt"  fill="#880000"   font-style="normal"  text-anchor="start" type="comment" font-weight="normal"   >Date: </text>           <text x="794" y="771" font-family="Verdana,msyh" font-size="9pt"  fill="#0000FF"   font-style="normal"  text-anchor="start" type="comment" font-weight="normal"   >2017-01-21 </text>           <text x="1024" y="771" font-family="Verdana,msyh" font-size="8pt"  fill="#880000"   font-style="normal"  text-anchor="start" type="comment" font-weight="normal"   >Sheet: </text>           <text x="1069" y="771" font-family="Verdana,msyh" font-size="9pt"  fill="#0000FF"   font-style="normal"  text-anchor="start" type="comment" font-weight="normal"   >1/1 </text>           <text x="744" y="791" font-family="Verdana,msyh" font-size="8pt"  fill="#880000"   font-style="normal"  text-anchor="start" type="comment" font-weight="normal"   >EasyEDA V4.1.3 </text>           <text x="944" y="791" font-family="Verdana,msyh" font-size="8pt"  fill="#880000"   font-style="normal"  text-anchor="start" type="comment" font-weight="normal"   >Drawn By: </text>           <text x="1009" y="791" font-family="Verdana,msyh" font-size="9pt"  fill="#0000FF"   font-style="normal"  text-anchor="start" type="comment" font-weight="normal"   >Your Name </text></g>  <g    xmlns="http://www.w3.org/2000/svg">           <text   x="474.5" y="317" font-family="Arial" font-size="7pt"  fill="#000080"    text-anchor="start"    >ATTINY85 </text>           <text   x="474.5" y="308" font-family="Arial" font-size="7pt" fill="#000080"    text-anchor="start"    >P1 </text>    <g c_partid="part_pin" c_etype="pinpart"  c_show="show"  c_elec="0" c_spicepin="1" c_origin="440 ,330"  id="0" c_rotation="180">    <path d="M 440 330 h 20" fill="none" stroke="#880000"   stroke-width="1"/>      <text x="462" y="333" font-family="Verdana,msyh" font-size="7pt" fill="#0000FF" text-anchor="start"     >1 </text>        <text x="455" y="329" font-family="Verdana,msyh" font-size="7pt" fill="#0000FF" text-anchor="end"      >1 </text><circle cx="457" cy="330" r="3"  fill="none" stroke="#0000FF" stroke-width="1" display="none" /><path d="M 460 333 L 463 330 L 460 327"   fill="none" stroke="#0000FF" stroke-width="1" display="none" /></g>    <g c_partid="part_pin" c_etype="pinpart"  c_show="show"  c_elec="0" c_spicepin="2" c_origin="520 ,330"  id="0" c_rotation="0">    <path d="M 520 330 h -20" fill="none" stroke="#880000"   stroke-width="1"/>      <text x="498" y="333" font-family="Verdana,msyh" font-size="7pt" fill="#0000FF" text-anchor="end"     >2 </text>        <text x="505" y="329" font-family="Verdana,msyh" font-size="7pt" fill="#0000FF" text-anchor="start"      >2 </text><circle cx="503" cy="330" r="3"  fill="none" stroke="#0000FF" stroke-width="1" display="none" /><path d="M 500 327 L 497 330 L 500 333"   fill="none" stroke="#0000FF" stroke-width="1" display="none" /></g>    <g c_partid="part_pin" c_etype="pinpart"  c_show="show"  c_elec="0" c_spicepin="3" c_origin="440 ,340"  id="0" c_rotation="180">    <path d="M 440 340 h 20" fill="none" stroke="#880000"   stroke-width="1"/>      <text x="462" y="343" font-family="Verdana,msyh" font-size="7pt" fill="#0000FF" text-anchor="start"     >3 </text>        <text x="455" y="339" font-family="Verdana,msyh" font-size="7pt" fill="#0000FF" text-anchor="end"      >3 </text><circle cx="457" cy="340" r="3"  fill="none" stroke="#0000FF" stroke-width="1" display="none" /><path d="M 460 343 L 463 340 L 460 337"   fill="none" stroke="#0000FF" stroke-width="1" display="none" /></g>    <g c_partid="part_pin" c_etype="pinpart"  c_show="show"  c_elec="0" c_spicepin="4" c_origin="520 ,340"  id="0" c_rotation="0">    <path d="M 520 340 h -20" fill="none" stroke="#880000"   stroke-width="1"/>      <text x="498" y="343" font-family="Verdana,msyh" font-size="7pt" fill="#0000FF" text-anchor="end"     >4 </text>        <text x="505" y="339" font-family="Verdana,msyh" font-size="7pt" fill="#0000FF" text-anchor="start"      >4 </text><circle cx="503" cy="340" r="3"  fill="none" stroke="#0000FF" stroke-width="1" display="none" /><path d="M 500 337 L 497 340 L 500 343"   fill="none" stroke="#0000FF" stroke-width="1" display="none" /></g>    <g c_partid="part_pin" c_etype="pinpart"  c_show="show"  c_elec="0" c_spicepin="5" c_origin="440 ,350"  id="0" c_rotation="180">    <path d="M 440 350 h 20" fill="none" stroke="#880000"   stroke-width="1"/>      <text x="462" y="353" font-family="Verdana,msyh" font-size="7pt" fill="#0000FF" text-anchor="start"     >5 </text>        <text x="455" y="349" font-family="Verdana,msyh" font-size="7pt" fill="#0000FF" text-anchor="end"      >5 </text><circle cx="457" cy="350" r="3"  fill="none" stroke="#0000FF" stroke-width="1" display="none" /><path d="M 460 353 L 463 350 L 460 347"   fill="none" stroke="#0000FF" stroke-width="1" display="none" /></g>    <g c_partid="part_pin" c_etype="pinpart"  c_show="show"  c_elec="0" c_spicepin="6" c_origin="520 ,350"  id="0" c_rotation="0">    <path d="M 520 350 h -20" fill="none" stroke="#880000"   stroke-width="1"/>      <text x="498" y="353" font-family="Verdana,msyh" font-size="7pt" fill="#0000FF" text-anchor="end"     >6 </text>        <text x="505" y="349" font-family="Verdana,msyh" font-size="7pt" fill="#0000FF" text-anchor="start"      >6 </text><circle cx="503" cy="350" r="3"  fill="none" stroke="#0000FF" stroke-width="1" display="none" /><path d="M 500 347 L 497 350 L 500 353"   fill="none" stroke="#0000FF" stroke-width="1" display="none" /></g>    <g c_partid="part_pin" c_etype="pinpart"  c_show="show"  c_elec="0" c_spicepin="7" c_origin="440 ,360"  id="0" c_rotation="180">    <path d="M 440 360 h 20" fill="none" stroke="#880000"   stroke-width="1"/>      <text x="462" y="363" font-family="Verdana,msyh" font-size="7pt" fill="#0000FF" text-anchor="start"     >7 </text>        <text x="455" y="359" font-family="Verdana,msyh" font-size="7pt" fill="#0000FF" text-anchor="end"      >7 </text><circle cx="457" cy="360" r="3"  fill="none" stroke="#0000FF" stroke-width="1" display="none" /><path d="M 460 363 L 463 360 L 460 357"   fill="none" stroke="#0000FF" stroke-width="1" display="none" /></g>    <g c_partid="part_pin" c_etype="pinpart"  c_show="show"  c_elec="0" c_spicepin="8" c_origin="520 ,360"  id="0" c_rotation="0">    <path d="M 520 360 h -20" fill="none" stroke="#880000"   stroke-width="1"/>      <text x="498" y="363" font-family="Verdana,msyh" font-size="7pt" fill="#0000FF" text-anchor="end"     >8 </text>        <text x="505" y="359" font-family="Verdana,msyh" font-size="7pt" fill="#0000FF" text-anchor="start"      >8 </text><circle cx="503" cy="360" r="3"  fill="none" stroke="#0000FF" stroke-width="1" display="none" /><path d="M 500 357 L 497 360 L 500 363"   fill="none" stroke="#0000FF" stroke-width="1" display="none" /></g>      <rect xmlns="http://www.w3.org/2000/svg" x="460" y="320"     width="40" height="50"    stroke="#000000"  stroke-width="1"  fill="none"       /></g>  <g  c_rotation="180"  xmlns="http://www.w3.org/2000/svg">           <text   x="205.33" y="312" font-family="Arial" font-size="7pt"  fill="#000080"    text-anchor="start"    >Header </text>           <text   x="205.33" y="303.11" font-family="Arial" font-size="7pt" fill="#000080"    text-anchor="start"    >P3 </text>      <rect xmlns="http://www.w3.org/2000/svg" x="190" y="315"     width="20" height="40"    stroke="#880000"  stroke-width="1"  fill="#EFEFEF"       />    <g c_partid="part_pin" c_etype="pinpart"  c_show="show"  c_elec="1" c_spicepin="1" c_origin="230 ,350"  id="0" c_rotation="0">    <path d="M 230 350 h -20" fill="none" stroke="#000000"   stroke-width="1"/>      <text x="205" y="353" font-family="Verdana,msyh" font-size="7pt" fill="#000000" text-anchor="end"     >1 </text><circle cx="213" cy="350" r="3"  fill="none" stroke="#000000" stroke-width="1" display="none" /><path d="M 210 347 L 207 350 L 210 353"   fill="none" stroke="#000000" stroke-width="1" display="none" /></g>    <g c_partid="part_pin" c_etype="pinpart"  c_show="show"  c_elec="1" c_spicepin="2" c_origin="230 ,340"  id="0" c_rotation="0">    <path d="M 230 340 h -20" fill="none" stroke="#000000"   stroke-width="1"/>      <text x="205" y="343" font-family="Verdana,msyh" font-size="7pt" fill="#000000" text-anchor="end"     >2 </text><circle cx="213" cy="340" r="3"  fill="none" stroke="#000000" stroke-width="1" display="none" /><path d="M 210 337 L 207 340 L 210 343"   fill="none" stroke="#000000" stroke-width="1" display="none" /></g>    <g c_partid="part_pin" c_etype="pinpart"  c_show="show"  c_elec="1" c_spicepin="3" c_origin="230 ,330"  id="0" c_rotation="0">    <path d="M 230 330 h -20" fill="none" stroke="#000000"   stroke-width="1"/>      <text x="205" y="333" font-family="Verdana,msyh" font-size="7pt" fill="#000000" text-anchor="end"     >3 </text><circle cx="213" cy="330" r="3"  fill="none" stroke="#000000" stroke-width="1" display="none" /><path d="M 210 327 L 207 330 L 210 333"   fill="none" stroke="#000000" stroke-width="1" display="none" /></g>    <g c_partid="part_pin" c_etype="pinpart"  c_show="show"  c_elec="1" c_spicepin="4" c_origin="230 ,320"  id="0" c_rotation="0">    <path d="M 230 320 h -20" fill="none" stroke="#000000"   stroke-width="1"/>      <text x="205" y="323" font-family="Verdana,msyh" font-size="7pt" fill="#000000" text-anchor="end"     >4 </text><circle cx="213" cy="320" r="3"  fill="none" stroke="#000000" stroke-width="1" display="none" /><path d="M 210 317 L 207 320 L 210 323"   fill="none" stroke="#000000" stroke-width="1" display="none" /></g></g>    <polyline points="230 320 230 260 580 260 580 330 520 330" stroke="#008800" stroke-width="1"   fill="none" stroke-linecap="round"     />    <polyline points="230 330 300 330 300 510 590 510 590 340 520 340" stroke="#008800" stroke-width="1"   fill="none" stroke-linecap="round"     />    <polyline points="230 340 330 340 330 500 560 500 560 350 520 350" stroke="#008800" stroke-width="1"   fill="none" stroke-linecap="round"     />  <g  c_rotation="90"  xmlns="http://www.w3.org/2000/svg">           <text   x="367" y="292" font-family="Arial" font-size="7pt"  fill="#000080"    text-anchor="start"    >1k </text>           <text   x="367" y="283" font-family="Arial" font-size="7pt" fill="#000080"    text-anchor="start"    >R1 </text>      <polyline points="360 265 365 268" stroke="#A00000" stroke-width="1"    fill="none"  stroke-linecap="round"    />      <polyline points="355 273 365 278" stroke="#A00000" stroke-width="1"    fill="none"  stroke-linecap="round"    />      <polyline points="365 268 355 273" stroke="#A00000" stroke-width="1"    fill="none"  stroke-linecap="round"    />    <g c_partid="part_pin" c_etype="pinpart"  c_show="show"  c_elec="0" c_spicepin="2" c_origin="360 ,260"  id="0" c_rotation="90">    <path d="M 360 260 v 5" fill="none" stroke="#800"   stroke-width="1"/><circle cx="360" cy="262" r="3"  fill="none" stroke="#800" stroke-width="1" display="none" /><path d="M 357 265 L 360 268 L 363 265"   fill="none" stroke="#800" stroke-width="1" display="none" /></g>      <polyline points="365 287 355 292" stroke="#A00000" stroke-width="1"    fill="none"  stroke-linecap="round"    />      <polyline points="365 278 355 282" stroke="#A00000" stroke-width="1"    fill="none"  stroke-linecap="round"    />      <polyline points="355 282 365 287" stroke="#A00000" stroke-width="1"    fill="none"  stroke-linecap="round"    />      <polyline points="355 292 360 295" stroke="#A00000" stroke-width="1"    fill="none"  stroke-linecap="round"    />    <g c_partid="part_pin" c_etype="pinpart"  c_show="show"  c_elec="0" c_spicepin="1" c_origin="360 ,300"  id="0" c_rotation="270">    <path d="M 360 300 v -5" fill="none" stroke="#800"   stroke-width="1"/><circle cx="360" cy="298" r="3"  fill="none" stroke="#800" stroke-width="1" display="none" /><path d="M 363 295 L 360 292 L 357 295"   fill="none" stroke="#800" stroke-width="1" display="none" /></g></g>  <g  c_rotation="90"  xmlns="http://www.w3.org/2000/svg">           <text   x="420" y="270" font-family="Arial" font-size="7pt"  fill="#000080"    text-anchor="start"    >1k </text>           <text   x="417" y="283" font-family="Arial" font-size="7pt" fill="#000080"    text-anchor="start"    >R2 </text>      <polyline points="410 265 415 268" stroke="#A00000" stroke-width="1"    fill="none"  stroke-linecap="round"    />      <polyline points="405 273 415 278" stroke="#A00000" stroke-width="1"    fill="none"  stroke-linecap="round"    />      <polyline points="415 268 405 273" stroke="#A00000" stroke-width="1"    fill="none"  stroke-linecap="round"    />    <g c_partid="part_pin" c_etype="pinpart"  c_show="show"  c_elec="0" c_spicepin="2" c_origin="410 ,260"  id="0" c_rotation="90">    <path d="M 410 260 v 5" fill="none" stroke="#800"   stroke-width="1"/><circle cx="410" cy="262" r="3"  fill="none" stroke="#800" stroke-width="1" display="none" /><path d="M 407 265 L 410 268 L 413 265"   fill="none" stroke="#800" stroke-width="1" display="none" /></g>      <polyline points="415 287 405 292" stroke="#A00000" stroke-width="1"    fill="none"  stroke-linecap="round"    />      <polyline points="415 278 405 282" stroke="#A00000" stroke-width="1"    fill="none"  stroke-linecap="round"    />      <polyline points="405 282 415 287" stroke="#A00000" stroke-width="1"    fill="none"  stroke-linecap="round"    />      <polyline points="405 292 410 295" stroke="#A00000" stroke-width="1"    fill="none"  stroke-linecap="round"    />    <g c_partid="part_pin" c_etype="pinpart"  c_show="show"  c_elec="0" c_spicepin="1" c_origin="410 ,300"  id="0" c_rotation="270">    <path d="M 410 300 v -5" fill="none" stroke="#800"   stroke-width="1"/><circle cx="410" cy="298" r="3"  fill="none" stroke="#800" stroke-width="1" display="none" /><path d="M 413 295 L 410 292 L 407 295"   fill="none" stroke="#800" stroke-width="1" display="none" /></g></g>    <circle cx="410" cy="260" r="2" fill="#CC0000"  stroke-width="1"/>  <g  c_rotation="90"  xmlns="http://www.w3.org/2000/svg">           <text   x="367" y="382" font-family="Arial" font-size="7pt"  fill="#000080"    text-anchor="start"    >1k </text>           <text   x="367" y="373" font-family="Arial" font-size="7pt" fill="#000080"    text-anchor="start"    >R3 </text>      <polyline points="360 355 365 358" stroke="#A00000" stroke-width="1"    fill="none"  stroke-linecap="round"    />      <polyline points="355 363 365 368" stroke="#A00000" stroke-width="1"    fill="none"  stroke-linecap="round"    />      <polyline points="365 358 355 363" stroke="#A00000" stroke-width="1"    fill="none"  stroke-linecap="round"    />    <g c_partid="part_pin" c_etype="pinpart"  c_show="show"  c_elec="0" c_spicepin="2" c_origin="360 ,350"  id="0" c_rotation="90">    <path d="M 360 350 v 5" fill="none" stroke="#800"   stroke-width="1"/><circle cx="360" cy="352" r="3"  fill="none" stroke="#800" stroke-width="1" display="none" /><path d="M 357 355 L 360 358 L 363 355"   fill="none" stroke="#800" stroke-width="1" display="none" /></g>      <polyline points="365 377 355 382" stroke="#A00000" stroke-width="1"    fill="none"  stroke-linecap="round"    />      <polyline points="365 368 355 372" stroke="#A00000" stroke-width="1"    fill="none"  stroke-linecap="round"    />      <polyline points="355 372 365 377" stroke="#A00000" stroke-width="1"    fill="none"  stroke-linecap="round"    />      <polyline points="355 382 360 385" stroke="#A00000" stroke-width="1"    fill="none"  stroke-linecap="round"    />    <g c_partid="part_pin" c_etype="pinpart"  c_show="show"  c_elec="0" c_spicepin="1" c_origin="360 ,390"  id="0" c_rotation="270">    <path d="M 360 390 v -5" fill="none" stroke="#800"   stroke-width="1"/><circle cx="360" cy="388" r="3"  fill="none" stroke="#800" stroke-width="1" display="none" /><path d="M 363 385 L 360 382 L 357 385"   fill="none" stroke="#800" stroke-width="1" display="none" /></g></g>  <g  c_rotation="90"  xmlns="http://www.w3.org/2000/svg">           <text   x="425" y="373" font-family="Arial" font-size="7pt"  fill="#000080"    text-anchor="start"    >1k </text>           <text   x="417" y="383" font-family="Arial" font-size="7pt" fill="#000080"    text-anchor="start"    >R4 </text>      <polyline points="410 365 415 368" stroke="#A00000" stroke-width="1"    fill="none"  stroke-linecap="round"    />      <polyline points="405 373 415 378" stroke="#A00000" stroke-width="1"    fill="none"  stroke-linecap="round"    />      <polyline points="415 368 405 373" stroke="#A00000" stroke-width="1"    fill="none"  stroke-linecap="round"    />    <g c_partid="part_pin" c_etype="pinpart"  c_show="show"  c_elec="0" c_spicepin="2" c_origin="410 ,360"  id="0" c_rotation="90">    <path d="M 410 360 v 5" fill="none" stroke="#800"   stroke-width="1"/><circle cx="410" cy="362" r="3"  fill="none" stroke="#800" stroke-width="1" display="none" /><path d="M 407 365 L 410 368 L 413 365"   fill="none" stroke="#800" stroke-width="1" display="none" /></g>      <polyline points="415 387 405 392" stroke="#A00000" stroke-width="1"    fill="none"  stroke-linecap="round"    />      <polyline points="415 378 405 382" stroke="#A00000" stroke-width="1"    fill="none"  stroke-linecap="round"    />      <polyline points="405 382 415 387" stroke="#A00000" stroke-width="1"    fill="none"  stroke-linecap="round"    />      <polyline points="405 392 410 395" stroke="#A00000" stroke-width="1"    fill="none"  stroke-linecap="round"    />    <g c_partid="part_pin" c_etype="pinpart"  c_show="show"  c_elec="0" c_spicepin="1" c_origin="410 ,400"  id="0" c_rotation="270">    <path d="M 410 400 v -5" fill="none" stroke="#800"   stroke-width="1"/><circle cx="410" cy="398" r="3"  fill="none" stroke="#800" stroke-width="1" display="none" /><path d="M 413 395 L 410 392 L 407 395"   fill="none" stroke="#800" stroke-width="1" display="none" /></g></g>  <g  c_rotation="270"  xmlns="http://www.w3.org/2000/svg">           <text   x="383" y="417" font-family="Arial" font-size="7pt"  fill="#000080"    text-anchor="start"    >led </text>           <text   x="383" y="408" font-family="Arial" font-size="7pt" fill="#000080"    text-anchor="start"    >LED </text>    <g c_partid="part_pin" c_etype="pinpart"  c_show="show"  c_elec="1" c_spicepin="1" c_origin="360 ,380"  id="0" c_rotation="90">    <path d="M 360 380 v 20" fill="none" stroke="#000000"   stroke-width="1"/><circle cx="360" cy="397" r="3"  fill="none" stroke="#000000" stroke-width="1" display="none" /><path d="M 357 400 L 360 403 L 363 400"   fill="none" stroke="#000000" stroke-width="1" display="none" /></g>    <g c_partid="part_pin" c_etype="pinpart"  c_show="show"  c_elec="1" c_spicepin="2" c_origin="360 ,430"  id="0" c_rotation="270">    <path d="M 360 430 v -20" fill="none" stroke="#000000"   stroke-width="1"/><circle cx="360" cy="413" r="3"  fill="none" stroke="#000000" stroke-width="1" display="none" /><path d="M 363 410 L 360 407 L 357 410"   fill="none" stroke="#000000" stroke-width="1" display="none" /></g>    <polygon points="350 400 360 410 370 400"  stroke="#880000"  stroke-width="1"   fill="#EFEFEF" stroke-linecap="round" />      <polyline points="370 414 377 421" stroke="#880000" stroke-width="1"    fill="none"  stroke-linecap="round"    />      <polyline points="374 410 381 417" stroke="#880000" stroke-width="1"    fill="none"  stroke-linecap="round"    />    <polygon points="377 421 375 417 373 419"  stroke="#880000"  stroke-width="1"   fill="#EFEFEF" stroke-linecap="round" />    <polygon points="381 417 379 413 377 415"  stroke="#880000"  stroke-width="1"   fill="#EFEFEF" stroke-linecap="round" />      <polyline points="370 410 350 410" stroke="#880000" stroke-width="1"    fill="none"  stroke-linecap="round"    /></g>    <polyline points="230 350 290 350 290 390 360 390 360 380" stroke="#008800" stroke-width="1"   fill="none" stroke-linecap="round"     />    <polyline points="360 430 440 430 440 360" stroke="#008800" stroke-width="1"   fill="none" stroke-linecap="round"     />  <g  c_rotation="270"  xmlns="http://www.w3.org/2000/svg">           <text   x="433" y="417" font-family="Arial" font-size="7pt"  fill="#000080"    text-anchor="start"    >led </text>           <text   x="433" y="408" font-family="Arial" font-size="7pt" fill="#000080"    text-anchor="start"    >LED </text>    <g c_partid="part_pin" c_etype="pinpart"  c_show="show"  c_elec="1" c_spicepin="1" c_origin="410 ,380"  id="0" c_rotation="90">    <path d="M 410 380 v 20" fill="none" stroke="#000000"   stroke-width="1"/><circle cx="410" cy="397" r="3"  fill="none" stroke="#000000" stroke-width="1" display="none" /><path d="M 407 400 L 410 403 L 413 400"   fill="none" stroke="#000000" stroke-width="1" display="none" /></g>    <g c_partid="part_pin" c_etype="pinpart"  c_show="show"  c_elec="1" c_spicepin="2" c_origin="410 ,430"  id="0" c_rotation="270">    <path d="M 410 430 v -20" fill="none" stroke="#000000"   stroke-width="1"/><circle cx="410" cy="413" r="3"  fill="none" stroke="#000000" stroke-width="1" display="none" /><path d="M 413 410 L 410 407 L 407 410"   fill="none" stroke="#000000" stroke-width="1" display="none" /></g>    <polygon points="400 400 410 410 420 400"  stroke="#880000"  stroke-width="1"   fill="#EFEFEF" stroke-linecap="round" />      <polyline points="420 414 427 421" stroke="#880000" stroke-width="1"    fill="none"  stroke-linecap="round"    />      <polyline points="424 410 431 417" stroke="#880000" stroke-width="1"    fill="none"  stroke-linecap="round"    />    <polygon points="427 421 425 417 423 419"  stroke="#880000"  stroke-width="1"   fill="#EFEFEF" stroke-linecap="round" />    <polygon points="431 417 429 413 427 415"  stroke="#880000"  stroke-width="1"   fill="#EFEFEF" stroke-linecap="round" />      <polyline points="420 410 400 410" stroke="#880000" stroke-width="1"    fill="none"  stroke-linecap="round"    /></g>    <polyline points="410 380 410 430" stroke="#008800" stroke-width="1"   fill="none" stroke-linecap="round"     />    <circle cx="360" cy="260" r="2" fill="#CC0000"  stroke-width="1"/>    <polyline points="410 360 410 300" stroke="#008800" stroke-width="1"   fill="none" stroke-linecap="round"     />    <polyline points="360 300 360 350 440 350" stroke="#008800" stroke-width="1"   fill="none" stroke-linecap="round"     />    <circle cx="360" cy="390" r="2" fill="#CC0000"  stroke-width="1"/>    <circle cx="410" cy="430" r="2" fill="#CC0000"  stroke-width="1"/>    <circle cx="410" cy="400" r="2" fill="#CC0000"  stroke-width="1"/>    <polyline points="440 340 410 340" stroke="#008800" stroke-width="1"   fill="none" stroke-linecap="round"     />    <circle cx="410" cy="340" r="2" fill="#CC0000"  stroke-width="1"/>    <circle cx="360" cy="350" r="2" fill="#CC0000"  stroke-width="1"/></svg>