<svg xmlns="http://www.w3.org/2000/svg"  shape-rendering="crispEdges" xmlns:xlink="http://www.w3.org/1999/xlink" width="8.673in" height="12.285in" viewBox="-10 -10 826 1170"><rect x="-10" y="-10" width="826" height="1170" fill="#FFFFFF" />  <g    xmlns="http://www.w3.org/2000/svg">           <text   x="229.640625" y="340" font-family="Arial" font-size="7pt"  fill="#000080"  display="none"  text-anchor="start"    >NO </text>           <text   x="229.6484375" y="329.296875" font-family="Arial" font-size="7pt" fill="#000080"  display="none"  text-anchor="start"    >. </text>      <path d="M 206 10 L 206 0 M 206 1139 L 206 1149 M 402 10 L 402 0 M 402 1139 L 402 1149 M 598 10 L 598 0 M 598 1139 L 598 1149 M 794 10 L 794 0 M 794 1139 L 794 1149 M 10 206 L 0 206 M 796 206 L 806 206 M 10 402 L 0 402 M 796 402 L 806 402 M 10 598 L 0 598 M 796 598 L 806 598 M 10 794 L 0 794 M 796 794 L 806 794 M 10 990 L 0 990 M 796 990 L 806 990"   stroke="#880000"  stroke-width="2"   fill="none"  />           <text x="1.5" y="108" font-family="Verdana,msyh" font-size="7pt"  fill="#880000"   font-style="normal"  text-anchor="start" type="comment" font-weight="normal"   >A </text>           <text x="797.5" y="108" font-family="Verdana,msyh" font-size="7pt"  fill="#880000"   font-style="normal"  text-anchor="start" type="comment" font-weight="normal"   >A </text>           <text x="1.5" y="304" font-family="Verdana,msyh" font-size="7pt"  fill="#880000"   font-style="normal"  text-anchor="start" type="comment" font-weight="normal"   >B </text>           <text x="797.5" y="304" font-family="Verdana,msyh" font-size="7pt"  fill="#880000"   font-style="normal"  text-anchor="start" type="comment" font-weight="normal"   >B </text>           <text x="1.5" y="500" font-family="Verdana,msyh" font-size="7pt"  fill="#880000"   font-style="normal"  text-anchor="start" type="comment" font-weight="normal"   >C </text>           <text x="797.5" y="500" font-family="Verdana,msyh" font-size="7pt"  fill="#880000"   font-style="normal"  text-anchor="start" type="comment" font-weight="normal"   >C </text>           <text x="1.5" y="696" font-family="Verdana,msyh" font-size="7pt"  fill="#880000"   font-style="normal"  text-anchor="start" type="comment" font-weight="normal"   >D </text>           <text x="797.5" y="696" font-family="Verdana,msyh" font-size="7pt"  fill="#880000"   font-style="normal"  text-anchor="start" type="comment" font-weight="normal"   >D </text>           <text x="1.5" y="892" font-family="Verdana,msyh" font-size="7pt"  fill="#880000"   font-style="normal"  text-anchor="start" type="comment" font-weight="normal"   >E </text>           <text x="797.5" y="892" font-family="Verdana,msyh" font-size="7pt"  fill="#880000"   font-style="normal"  text-anchor="start" type="comment" font-weight="normal"   >E </text>           <text x="108" y="8.5" font-family="Verdana,msyh" font-size="7pt"  fill="#880000"   font-style="normal"  text-anchor="start" type="comment" font-weight="normal"   >1 </text>           <text x="108" y="1147.5" font-family="Verdana,msyh" font-size="7pt"  fill="#880000"   font-style="normal"  text-anchor="start" type="comment" font-weight="normal"   >1 </text>           <text x="304" y="8.5" font-family="Verdana,msyh" font-size="7pt"  fill="#880000"   font-style="normal"  text-anchor="start" type="comment" font-weight="normal"   >2 </text>           <text x="304" y="1147.5" font-family="Verdana,msyh" font-size="7pt"  fill="#880000"   font-style="normal"  text-anchor="start" type="comment" font-weight="normal"   >2 </text>           <text x="500" y="8.5" font-family="Verdana,msyh" font-size="7pt"  fill="#880000"   font-style="normal"  text-anchor="start" type="comment" font-weight="normal"   >3 </text>           <text x="500" y="1147.5" font-family="Verdana,msyh" font-size="7pt"  fill="#880000"   font-style="normal"  text-anchor="start" type="comment" font-weight="normal"   >3 </text>           <text x="696" y="8.5" font-family="Verdana,msyh" font-size="7pt"  fill="#880000"   font-style="normal"  text-anchor="start" type="comment" font-weight="normal"   >4 </text>           <text x="696" y="1147.5" font-family="Verdana,msyh" font-size="7pt"  fill="#880000"   font-style="normal"  text-anchor="start" type="comment" font-weight="normal"   >4 </text>      <rect xmlns="http://www.w3.org/2000/svg" x="10" y="10"     width="786" height="1129"    stroke="#880000"  stroke-width="1"  fill="none"       />      <rect xmlns="http://www.w3.org/2000/svg" x="0" y="0"     width="806" height="1149"    stroke="#880000"  stroke-width="1"  fill="none"       />      <rect xmlns="http://www.w3.org/2000/svg" x="396" y="1059"     width="400" height="80"    stroke="#880000"  stroke-width="1"  fill="none"       />      <polyline points="396 1099 796 1099" stroke="#880000" stroke-width="2"    fill="none"  stroke-linecap="round"    />      <polyline points="396 1119 796 1119" stroke="#880000" stroke-width="2"    fill="none"  stroke-linecap="round"    />      <polyline points="716 1059 716 1099" stroke="#880000" stroke-width="2"    fill="none"  stroke-linecap="round"    />      <polyline points="676 1099 676 1119" stroke="#880000" stroke-width="2"    fill="none"  stroke-linecap="round"    />      <polyline points="591 1119 591 1139" stroke="#880000" stroke-width="2"    fill="none"  stroke-linecap="round"    />           <text x="401" y="1071" font-family="Verdana,msyh" font-size="8pt"  fill="#880000"   font-style="normal"  text-anchor="start" type="comment" font-weight="normal"   >TITLE: </text>           <text x="406" y="1089" font-family="Verdana,msyh" font-size="10pt"  fill="#0000FF"   font-style="normal"  text-anchor="start" type="comment" font-weight="normal"   >New Schematic </text>           <text x="722" y="1085" font-family="Verdana,msyh" font-size="8pt"  fill="#880000"   font-style="normal"  text-anchor="start" type="comment" font-weight="normal"   >REV: </text>           <text x="753" y="1086" font-family="Verdana,msyh" font-size="9pt"  fill="#0000FF"   font-style="normal"  text-anchor="start" type="comment" font-weight="normal"   >1.0 </text>           <text x="401" y="1114" font-family="Verdana,msyh" font-size="8pt"  fill="#880000"   font-style="normal"  text-anchor="start" type="comment" font-weight="normal"   >Date: </text>           <text x="451" y="1114" font-family="Verdana,msyh" font-size="9pt"  fill="#0000FF"   font-style="normal"  text-anchor="start" type="comment" font-weight="normal"   >2017-01-22 </text>           <text x="681" y="1114" font-family="Verdana,msyh" font-size="8pt"  fill="#880000"   font-style="normal"  text-anchor="start" type="comment" font-weight="normal"   >Sheet: </text>           <text x="726" y="1114" font-family="Verdana,msyh" font-size="9pt"  fill="#0000FF"   font-style="normal"  text-anchor="start" type="comment" font-weight="normal"   >1/1 </text>           <text x="401" y="1134" font-family="Verdana,msyh" font-size="8pt"  fill="#880000"   font-style="normal"  text-anchor="start" type="comment" font-weight="normal"   >EASYEDA V4.1.3 </text>           <text x="601" y="1134" font-family="Verdana,msyh" font-size="8pt"  fill="#880000"   font-style="normal"  text-anchor="start" type="comment" font-weight="normal"   >Drawn By: </text>           <text x="666" y="1134" font-family="Verdana,msyh" font-size="9pt"  fill="#0000FF"   font-style="normal"  text-anchor="start" type="comment" font-weight="normal"   >Your Name </text></g>  <g  c_rotation="180"  xmlns="http://www.w3.org/2000/svg">           <text   x="205.33" y="312" font-family="Arial" font-size="7pt"  fill="#000080"    text-anchor="start"    >i2c plug </text>           <text   x="205.33" y="303.11" font-family="Arial" font-size="7pt" fill="#000080"    text-anchor="start"    >P3 </text>      <rect xmlns="http://www.w3.org/2000/svg" x="190" y="315"     width="20" height="40"    stroke="#880000"  stroke-width="1"  fill="#EFEFEF"       />    <g c_partid="part_pin" c_etype="pinpart"  c_show="show"  c_elec="1" c_spicepin="1" c_origin="230 ,350"  id="0" c_rotation="0">    <path d="M 230 350 h -20" fill="none" stroke="#000000"   stroke-width="2"/>      <text x="205" y="353" font-family="Verdana,msyh" font-size="7pt" fill="#000000" text-anchor="end"     >1 </text><circle cx="213" cy="350" r="3"  fill="none" stroke="#000000" stroke-width="1" display="none" /><path d="M 210 347 L 207 350 L 210 353"   fill="none" stroke="#000000" stroke-width="1" display="none" /></g>    <g c_partid="part_pin" c_etype="pinpart"  c_show="show"  c_elec="1" c_spicepin="2" c_origin="230 ,340"  id="0" c_rotation="0">    <path d="M 230 340 h -20" fill="none" stroke="#000000"   stroke-width="2"/>      <text x="205" y="343" font-family="Verdana,msyh" font-size="7pt" fill="#000000" text-anchor="end"     >2 </text><circle cx="213" cy="340" r="3"  fill="none" stroke="#000000" stroke-width="1" display="none" /><path d="M 210 337 L 207 340 L 210 343"   fill="none" stroke="#000000" stroke-width="1" display="none" /></g>    <g c_partid="part_pin" c_etype="pinpart"  c_show="show"  c_elec="1" c_spicepin="3" c_origin="230 ,330"  id="0" c_rotation="0">    <path d="M 230 330 h -20" fill="none" stroke="#000000"   stroke-width="2"/>      <text x="205" y="333" font-family="Verdana,msyh" font-size="7pt" fill="#000000" text-anchor="end"     >3 </text><circle cx="213" cy="330" r="3"  fill="none" stroke="#000000" stroke-width="1" display="none" /><path d="M 210 327 L 207 330 L 210 333"   fill="none" stroke="#000000" stroke-width="1" display="none" /></g>    <g c_partid="part_pin" c_etype="pinpart"  c_show="show"  c_elec="1" c_spicepin="4" c_origin="230 ,320"  id="0" c_rotation="0">    <path d="M 230 320 h -20" fill="none" stroke="#000000"   stroke-width="2"/>      <text x="205" y="323" font-family="Verdana,msyh" font-size="7pt" fill="#000000" text-anchor="end"     >4 </text><circle cx="213" cy="320" r="3"  fill="none" stroke="#000000" stroke-width="1" display="none" /><path d="M 210 317 L 207 320 L 210 323"   fill="none" stroke="#000000" stroke-width="1" display="none" /></g></g>    <polyline points="230 320 230 260 580 260 580 330 540 330" stroke="#008800" stroke-width="2"   fill="none" stroke-linecap="round"     />    <polyline points="230 350 260 350 260 510 580 510 580 340 540 340" stroke="#008800" stroke-width="2"   fill="none" stroke-linecap="round"     />    <polyline points="230 340 290 340 290 500 560 500 560 360 540 360" stroke="#008800" stroke-width="2"   fill="none" stroke-linecap="round"     />  <g  c_rotation="90"  xmlns="http://www.w3.org/2000/svg">           <text   x="367" y="292" font-family="Arial" font-size="7pt"  fill="#000080"    text-anchor="start"    >560 </text>           <text   x="367" y="283" font-family="Arial" font-size="7pt" fill="#000080"    text-anchor="start"    >R1 </text>      <polyline points="360 265 365 268" stroke="#A00000" stroke-width="2"    fill="none"  stroke-linecap="round"    />      <polyline points="355 273 365 278" stroke="#A00000" stroke-width="2"    fill="none"  stroke-linecap="round"    />      <polyline points="365 268 355 273" stroke="#A00000" stroke-width="2"    fill="none"  stroke-linecap="round"    />    <g c_partid="part_pin" c_etype="pinpart"  c_show="show"  c_elec="0" c_spicepin="2" c_origin="360 ,260"  id="0" c_rotation="90">    <path d="M 360 260 v 5" fill="none" stroke="#800"   stroke-width="2"/><circle cx="360" cy="262" r="3"  fill="none" stroke="#800" stroke-width="1" display="none" /><path d="M 357 265 L 360 268 L 363 265"   fill="none" stroke="#800" stroke-width="1" display="none" /></g>      <polyline points="365 287 355 292" stroke="#A00000" stroke-width="2"    fill="none"  stroke-linecap="round"    />      <polyline points="365 278 355 282" stroke="#A00000" stroke-width="2"    fill="none"  stroke-linecap="round"    />      <polyline points="355 282 365 287" stroke="#A00000" stroke-width="2"    fill="none"  stroke-linecap="round"    />      <polyline points="355 292 360 295" stroke="#A00000" stroke-width="2"    fill="none"  stroke-linecap="round"    />    <g c_partid="part_pin" c_etype="pinpart"  c_show="show"  c_elec="0" c_spicepin="1" c_origin="360 ,300"  id="0" c_rotation="270">    <path d="M 360 300 v -5" fill="none" stroke="#800"   stroke-width="2"/><circle cx="360" cy="298" r="3"  fill="none" stroke="#800" stroke-width="1" display="none" /><path d="M 363 295 L 360 292 L 357 295"   fill="none" stroke="#800" stroke-width="1" display="none" /></g></g>  <g  c_rotation="90"  xmlns="http://www.w3.org/2000/svg">           <text   x="417" y="296" font-family="Arial" font-size="7pt"  fill="#000080"    text-anchor="start"    >560 </text>           <text   x="417" y="283" font-family="Arial" font-size="7pt" fill="#000080"    text-anchor="start"    >R2 </text>      <polyline points="410 265 415 268" stroke="#A00000" stroke-width="2"    fill="none"  stroke-linecap="round"    />      <polyline points="405 273 415 278" stroke="#A00000" stroke-width="2"    fill="none"  stroke-linecap="round"    />      <polyline points="415 268 405 273" stroke="#A00000" stroke-width="2"    fill="none"  stroke-linecap="round"    />    <g c_partid="part_pin" c_etype="pinpart"  c_show="show"  c_elec="0" c_spicepin="2" c_origin="410 ,260"  id="0" c_rotation="90">    <path d="M 410 260 v 5" fill="none" stroke="#800"   stroke-width="2"/><circle cx="410" cy="262" r="3"  fill="none" stroke="#800" stroke-width="1" display="none" /><path d="M 407 265 L 410 268 L 413 265"   fill="none" stroke="#800" stroke-width="1" display="none" /></g>      <polyline points="415 287 405 292" stroke="#A00000" stroke-width="2"    fill="none"  stroke-linecap="round"    />      <polyline points="415 278 405 282" stroke="#A00000" stroke-width="2"    fill="none"  stroke-linecap="round"    />      <polyline points="405 282 415 287" stroke="#A00000" stroke-width="2"    fill="none"  stroke-linecap="round"    />      <polyline points="405 292 410 295" stroke="#A00000" stroke-width="2"    fill="none"  stroke-linecap="round"    />    <g c_partid="part_pin" c_etype="pinpart"  c_show="show"  c_elec="0" c_spicepin="1" c_origin="410 ,300"  id="0" c_rotation="270">    <path d="M 410 300 v -5" fill="none" stroke="#800"   stroke-width="2"/><circle cx="410" cy="298" r="3"  fill="none" stroke="#800" stroke-width="1" display="none" /><path d="M 413 295 L 410 292 L 407 295"   fill="none" stroke="#800" stroke-width="1" display="none" /></g></g>    <circle cx="410" cy="260" r="2" fill="#CC0000"  stroke-width="2"/>  <g  c_rotation="90"  xmlns="http://www.w3.org/2000/svg">           <text   x="367" y="382" font-family="Arial" font-size="7pt"  fill="#000080"    text-anchor="start"    >220 </text>           <text   x="367" y="373" font-family="Arial" font-size="7pt" fill="#000080"    text-anchor="start"    >R3 </text>      <polyline points="360 355 365 358" stroke="#A00000" stroke-width="2"    fill="none"  stroke-linecap="round"    />      <polyline points="355 363 365 368" stroke="#A00000" stroke-width="2"    fill="none"  stroke-linecap="round"    />      <polyline points="365 358 355 363" stroke="#A00000" stroke-width="2"    fill="none"  stroke-linecap="round"    />    <g c_partid="part_pin" c_etype="pinpart"  c_show="show"  c_elec="0" c_spicepin="2" c_origin="360 ,350"  id="0" c_rotation="90">    <path d="M 360 350 v 5" fill="none" stroke="#800"   stroke-width="2"/><circle cx="360" cy="352" r="3"  fill="none" stroke="#800" stroke-width="1" display="none" /><path d="M 357 355 L 360 358 L 363 355"   fill="none" stroke="#800" stroke-width="1" display="none" /></g>      <polyline points="365 377 355 382" stroke="#A00000" stroke-width="2"    fill="none"  stroke-linecap="round"    />      <polyline points="365 368 355 372" stroke="#A00000" stroke-width="2"    fill="none"  stroke-linecap="round"    />      <polyline points="355 372 365 377" stroke="#A00000" stroke-width="2"    fill="none"  stroke-linecap="round"    />      <polyline points="355 382 360 385" stroke="#A00000" stroke-width="2"    fill="none"  stroke-linecap="round"    />    <g c_partid="part_pin" c_etype="pinpart"  c_show="show"  c_elec="0" c_spicepin="1" c_origin="360 ,390"  id="0" c_rotation="270">    <path d="M 360 390 v -5" fill="none" stroke="#800"   stroke-width="2"/><circle cx="360" cy="388" r="3"  fill="none" stroke="#800" stroke-width="1" display="none" /><path d="M 363 385 L 360 382 L 357 385"   fill="none" stroke="#800" stroke-width="1" display="none" /></g></g>  <g  c_rotation="90"  xmlns="http://www.w3.org/2000/svg">           <text   x="417" y="392" font-family="Arial" font-size="7pt"  fill="#000080"    text-anchor="start"    >220 </text>           <text   x="417" y="383" font-family="Arial" font-size="7pt" fill="#000080"    text-anchor="start"    >R4 </text>      <polyline points="410 365 415 368" stroke="#A00000" stroke-width="2"    fill="none"  stroke-linecap="round"    />      <polyline points="405 373 415 378" stroke="#A00000" stroke-width="2"    fill="none"  stroke-linecap="round"    />      <polyline points="415 368 405 373" stroke="#A00000" stroke-width="2"    fill="none"  stroke-linecap="round"    />    <g c_partid="part_pin" c_etype="pinpart"  c_show="show"  c_elec="0" c_spicepin="2" c_origin="410 ,360"  id="0" c_rotation="90">    <path d="M 410 360 v 5" fill="none" stroke="#800"   stroke-width="2"/><circle cx="410" cy="362" r="3"  fill="none" stroke="#800" stroke-width="1" display="none" /><path d="M 407 365 L 410 368 L 413 365"   fill="none" stroke="#800" stroke-width="1" display="none" /></g>      <polyline points="415 387 405 392" stroke="#A00000" stroke-width="2"    fill="none"  stroke-linecap="round"    />      <polyline points="415 378 405 382" stroke="#A00000" stroke-width="2"    fill="none"  stroke-linecap="round"    />      <polyline points="405 382 415 387" stroke="#A00000" stroke-width="2"    fill="none"  stroke-linecap="round"    />      <polyline points="405 392 410 395" stroke="#A00000" stroke-width="2"    fill="none"  stroke-linecap="round"    />    <g c_partid="part_pin" c_etype="pinpart"  c_show="show"  c_elec="0" c_spicepin="1" c_origin="410 ,400"  id="0" c_rotation="270">    <path d="M 410 400 v -5" fill="none" stroke="#800"   stroke-width="2"/><circle cx="410" cy="398" r="3"  fill="none" stroke="#800" stroke-width="1" display="none" /><path d="M 413 395 L 410 392 L 407 395"   fill="none" stroke="#800" stroke-width="1" display="none" /></g></g>  <g  c_rotation="270"  xmlns="http://www.w3.org/2000/svg">           <text   x="378" y="417" font-family="Arial" font-size="7pt"  fill="#000080"    text-anchor="start"    >  </text>           <text   x="376" y="414" font-family="Arial" font-size="7pt" fill="#000080"    text-anchor="start"    >LED </text>    <g c_partid="part_pin" c_etype="pinpart"  c_show="show"  c_elec="1" c_spicepin="1" c_origin="360 ,390"  id="0" c_rotation="90">    <path d="M 360 390 v 20" fill="none" stroke="#000000"   stroke-width="2"/><circle cx="360" cy="407" r="3"  fill="none" stroke="#000000" stroke-width="1" display="none" /><path d="M 357 410 L 360 413 L 363 410"   fill="none" stroke="#000000" stroke-width="1" display="none" /></g>    <g c_partid="part_pin" c_etype="pinpart"  c_show="show"  c_elec="1" c_spicepin="2" c_origin="360 ,440"  id="0" c_rotation="270">    <path d="M 360 440 v -20" fill="none" stroke="#000000"   stroke-width="2"/><circle cx="360" cy="423" r="3"  fill="none" stroke="#000000" stroke-width="1" display="none" /><path d="M 363 420 L 360 417 L 357 420"   fill="none" stroke="#000000" stroke-width="1" display="none" /></g>    <polygon points="350 410 360 420 370 410"  stroke="#880000"  stroke-width="2"   fill="#EFEFEF" stroke-linecap="round" />      <polyline points="370 424 377 431" stroke="#880000" stroke-width="2"    fill="none"  stroke-linecap="round"    />      <polyline points="374 420 381 427" stroke="#880000" stroke-width="2"    fill="none"  stroke-linecap="round"    />    <polygon points="377 431 375 427 373 429"  stroke="#880000"  stroke-width="2"   fill="#EFEFEF" stroke-linecap="round" />    <polygon points="381 427 379 423 377 425"  stroke="#880000"  stroke-width="2"   fill="#EFEFEF" stroke-linecap="round" />      <polyline points="370 420 350 420" stroke="#880000" stroke-width="2"    fill="none"  stroke-linecap="round"    /></g>    <polyline points="230 330 320 330 320 440 360 440 360 400" stroke="#008800" stroke-width="2"   fill="none" stroke-linecap="round"     />    <polyline points="360 440 440 440 440 360" stroke="#008800" stroke-width="2"   fill="none" stroke-linecap="round"     />  <g  c_rotation="270"  xmlns="http://www.w3.org/2000/svg">           <text   x="433" y="437" font-family="Arial" font-size="7pt"  fill="#000080"    text-anchor="start"    >  </text>           <text   x="417" y="413" font-family="Arial" font-size="7pt" fill="#000080"    text-anchor="start"    >LED </text>    <g c_partid="part_pin" c_etype="pinpart"  c_show="show"  c_elec="1" c_spicepin="1" c_origin="410 ,400"  id="0" c_rotation="90">    <path d="M 410 400 v 20" fill="none" stroke="#000000"   stroke-width="2"/><circle cx="410" cy="417" r="3"  fill="none" stroke="#000000" stroke-width="1" display="none" /><path d="M 407 420 L 410 423 L 413 420"   fill="none" stroke="#000000" stroke-width="1" display="none" /></g>    <g c_partid="part_pin" c_etype="pinpart"  c_show="show"  c_elec="1" c_spicepin="2" c_origin="410 ,450"  id="0" c_rotation="270">    <path d="M 410 450 v -20" fill="none" stroke="#000000"   stroke-width="2"/><circle cx="410" cy="433" r="3"  fill="none" stroke="#000000" stroke-width="1" display="none" /><path d="M 413 430 L 410 427 L 407 430"   fill="none" stroke="#000000" stroke-width="1" display="none" /></g>    <polygon points="400 420 410 430 420 420"  stroke="#880000"  stroke-width="2"   fill="#EFEFEF" stroke-linecap="round" />      <polyline points="420 434 427 441" stroke="#880000" stroke-width="2"    fill="none"  stroke-linecap="round"    />      <polyline points="424 430 431 437" stroke="#880000" stroke-width="2"    fill="none"  stroke-linecap="round"    />    <polygon points="427 441 425 437 423 439"  stroke="#880000"  stroke-width="2"   fill="#EFEFEF" stroke-linecap="round" />    <polygon points="431 437 429 433 427 435"  stroke="#880000"  stroke-width="2"   fill="#EFEFEF" stroke-linecap="round" />      <polyline points="420 430 400 430" stroke="#880000" stroke-width="2"    fill="none"  stroke-linecap="round"    /></g>    <circle cx="360" cy="260" r="2" fill="#CC0000"  stroke-width="2"/>    <polyline points="410 360 410 300" stroke="#008800" stroke-width="2"   fill="none" stroke-linecap="round"     />    <polyline points="360 300 360 350 440 350" stroke="#008800" stroke-width="2"   fill="none" stroke-linecap="round"     />    <circle cx="360" cy="440" r="2" fill="#CC0000"  stroke-width="2"/>    <polyline points="440 340 410 340" stroke="#008800" stroke-width="2"   fill="none" stroke-linecap="round"     />    <circle cx="410" cy="340" r="2" fill="#CC0000"  stroke-width="2"/>    <circle cx="360" cy="350" r="2" fill="#CC0000"  stroke-width="2"/>           <text x="160" y="320" font-family="Verdana,msyh" font-size="9pt"  fill="#0000FF"   font-style="normal"  text-anchor="start" type="comment" font-weight="normal"   >3v3 </text>           <text x="160" y="330" font-family="Verdana,msyh" font-size="9pt"  fill="#0000FF"   font-style="normal"  text-anchor="start" type="comment" font-weight="normal"   >GND </text>           <text x="160" y="350" font-family="Verdana,msyh" font-size="9pt"  fill="#0000FF"   font-style="normal"  text-anchor="start" type="comment" font-weight="normal"   >SCL </text>           <text x="160" y="340" font-family="Verdana,msyh" font-size="9pt"  fill="#0000FF"   font-style="normal"  text-anchor="start" type="comment" font-weight="normal"   >SDA </text>           <text x="550" y="350" font-family="Verdana,msyh" font-size="9pt"  fill="#0000FF"   font-style="normal"  text-anchor="start" type="comment" font-weight="normal"   >SCL </text>           <text x="530" y="380" font-family="Verdana,msyh" font-size="9pt"  fill="#0000FF"   font-style="normal"  text-anchor="start" type="comment" font-weight="normal"   >SDA </text>     <text x="399" y="437" font-family="Times New Roman,msyh" font-size="9pt" fill="#000080" text-anchor="start" display="none"    >GND </text>      <polyline points="410 460 410 450" stroke="#000000" stroke-width="2"    fill="none"  stroke-linecap="round"    />      <polyline points="400 460 419 460" stroke="#000000" stroke-width="2"    fill="none"  stroke-linecap="round"    />      <polyline points="404 462 417 462" stroke="#000000" stroke-width="2"    fill="none"  stroke-linecap="round"    />      <polyline points="406 464 413 464" stroke="#000000" stroke-width="2"    fill="none"  stroke-linecap="round"    />      <polyline points="409 466 411 466" stroke="#000000" stroke-width="2"    fill="none"  stroke-linecap="round"    />           <text x="400" y="480" font-family="Verdana,msyh" font-size="9pt"  fill="#0000FF"   font-style="normal"  text-anchor="start" type="comment" font-weight="normal"   >GND </text>    <polyline points="410 410 410 440" stroke="#008800" stroke-width="2"   fill="none" stroke-linecap="round"     />    <circle cx="410" cy="440" r="2" fill="#CC0000"  stroke-width="2"/>  <g    xmlns="http://www.w3.org/2000/svg">           <text   x="484" y="315" font-family="Arial" font-size="7pt"  fill="#000080"    text-anchor="start"    >Attiny85 </text>           <text   x="484" y="306" font-family="Arial" font-size="7pt" fill="#000080"    text-anchor="start"    >U1 </text>     <ellipse cx="455" cy="323" rx="1.5" ry="1.5"  stroke="#880000"  stroke-width="2"  fill="#880000"     />      <rect xmlns="http://www.w3.org/2000/svg" x="450" y="318" rx="2"  ry="2"  width="80" height="54"    stroke="#880000"  stroke-width="1"  fill="none"       />     <ellipse cx="455" cy="323" rx="1.5" ry="1.5"  stroke="#880000"  stroke-width="2"  fill="#880000"     />    <g c_partid="part_pin" c_etype="pinpart"  c_show="show"  c_elec="0" c_spicepin="1" c_origin="440 ,330"  id="0" c_rotation="180">    <path d="M 440 330 h 10" fill="none" stroke="#880000"   stroke-width="2"/>      <text x="453.7" y="334" font-family="Verdana,msyh" font-size="7pt" fill="#0000FF" text-anchor="start"     >CS </text>        <text x="449.5" y="329" font-family="Verdana,msyh" font-size="7pt" fill="#0000FF" text-anchor="end"      >1 </text><circle cx="447" cy="330" r="3"  fill="none" stroke="#0000FF" stroke-width="1" display="none" /><path d="M 450 333 L 453 330 L 450 327"   fill="none" stroke="#0000FF" stroke-width="1" display="none" /></g>    <g c_partid="part_pin" c_etype="pinpart"  c_show="show"  c_elec="0" c_spicepin="2" c_origin="440 ,340"  id="0" c_rotation="180">    <path d="M 440 340 h 10" fill="none" stroke="#880000"   stroke-width="2"/>      <text x="453.7" y="344" font-family="Verdana,msyh" font-size="7pt" fill="#0000FF" text-anchor="start"     >ADC3 </text>        <text x="449.5" y="339" font-family="Verdana,msyh" font-size="7pt" fill="#0000FF" text-anchor="end"      >2 </text><circle cx="447" cy="340" r="3"  fill="none" stroke="#0000FF" stroke-width="1" display="none" /><path d="M 450 343 L 453 340 L 450 337"   fill="none" stroke="#0000FF" stroke-width="1" display="none" /></g>    <g c_partid="part_pin" c_etype="pinpart"  c_show="show"  c_elec="0" c_spicepin="3" c_origin="440 ,350"  id="0" c_rotation="180">    <path d="M 440 350 h 10" fill="none" stroke="#880000"   stroke-width="2"/>      <text x="453.7" y="354" font-family="Verdana,msyh" font-size="7pt" fill="#0000FF" text-anchor="start"     >ADC2 </text>        <text x="449.5" y="349" font-family="Verdana,msyh" font-size="7pt" fill="#0000FF" text-anchor="end"      >3 </text><circle cx="447" cy="350" r="3"  fill="none" stroke="#0000FF" stroke-width="1" display="none" /><path d="M 450 353 L 453 350 L 450 347"   fill="none" stroke="#0000FF" stroke-width="1" display="none" /></g>    <g c_partid="part_pin" c_etype="pinpart"  c_show="show"  c_elec="0" c_spicepin="4" c_origin="440 ,360"  id="0" c_rotation="180">    <path d="M 440 360 h 10" fill="none" stroke="#000000"   stroke-width="2"/>      <text x="453.7" y="364" font-family="Verdana,msyh" font-size="7pt" fill="#000000" text-anchor="start"     >GND </text>        <text x="449.5" y="359" font-family="Verdana,msyh" font-size="7pt" fill="#000000" text-anchor="end"      >4 </text><circle cx="447" cy="360" r="3"  fill="none" stroke="#000000" stroke-width="1" display="none" /><path d="M 450 363 L 453 360 L 450 357"   fill="none" stroke="#000000" stroke-width="1" display="none" /></g>    <g c_partid="part_pin" c_etype="pinpart"  c_show="show"  c_elec="0" c_spicepin="5" c_origin="540 ,360"  id="0" c_rotation="0">    <path d="M 540 360 h -10" fill="none" stroke="#880000"   stroke-width="2"/>      <text x="526.3" y="364" font-family="Verdana,msyh" font-size="7pt" fill="#0000FF" text-anchor="end"     >SDA </text>        <text x="530.5" y="359" font-family="Verdana,msyh" font-size="7pt" fill="#0000FF" text-anchor="start"      >5 </text><circle cx="533" cy="360" r="3"  fill="none" stroke="#0000FF" stroke-width="1" display="none" /><path d="M 530 357 L 527 360 L 530 363"   fill="none" stroke="#0000FF" stroke-width="1" display="none" /></g>    <g c_partid="part_pin" c_etype="pinpart"  c_show="show"  c_elec="0" c_spicepin="6" c_origin="540 ,350"  id="0" c_rotation="0">    <path d="M 540 350 h -10" fill="none" stroke="#880000"   stroke-width="2"/>      <text x="526.3" y="354" font-family="Verdana,msyh" font-size="7pt" fill="#0000FF" text-anchor="end"     > </text>        <text x="530.5" y="349" font-family="Verdana,msyh" font-size="7pt" fill="#0000FF" text-anchor="start"      >6 </text><circle cx="533" cy="350" r="3"  fill="none" stroke="#0000FF" stroke-width="1" display="none" /><path d="M 530 347 L 527 350 L 530 353"   fill="none" stroke="#0000FF" stroke-width="1" display="none" /></g>    <g c_partid="part_pin" c_etype="pinpart"  c_show="show"  c_elec="0" c_spicepin="7" c_origin="540 ,340"  id="0" c_rotation="0">    <path d="M 540 340 h -10" fill="none" stroke="#880000"   stroke-width="2"/>      <text x="526.3" y="344" font-family="Verdana,msyh" font-size="7pt" fill="#0000FF" text-anchor="end"     >SCL </text>        <text x="530.5" y="339" font-family="Verdana,msyh" font-size="7pt" fill="#0000FF" text-anchor="start"      >7 </text><circle cx="533" cy="340" r="3"  fill="none" stroke="#0000FF" stroke-width="1" display="none" /><path d="M 530 337 L 527 340 L 530 343"   fill="none" stroke="#0000FF" stroke-width="1" display="none" /></g>    <g c_partid="part_pin" c_etype="pinpart"  c_show="show"  c_elec="0" c_spicepin="8" c_origin="540 ,330"  id="0" c_rotation="0">    <path d="M 540 330 h -10" fill="none" stroke="#FF0000"   stroke-width="2"/>      <text x="526.3" y="334" font-family="Verdana,msyh" font-size="7pt" fill="#FF0000" text-anchor="end"     >VCC </text>        <text x="530.5" y="329" font-family="Verdana,msyh" font-size="7pt" fill="#FF0000" text-anchor="start"      >8 </text><circle cx="533" cy="330" r="3"  fill="none" stroke="#FF0000" stroke-width="1" display="none" /><path d="M 530 327 L 527 330 L 530 333"   fill="none" stroke="#FF0000" stroke-width="1" display="none" /></g></g></svg>